<svg xmlns="http://www.w3.org/2000/svg" viewBox="0 0 1000 800" fill="none">
<defs>
 <linearGradient id="gold" x1="140" y1="120" x2="760" y2="690" gradientUnits="userSpaceOnUse"><stop stop-color="#F7D96A"/><stop offset=".45" stop-color="#D4AF37"/><stop offset="1" stop-color="#B88616"/></linearGradient>
 <linearGradient id="black" x1="470" y1="120" x2="850" y2="600" gradientUnits="userSpaceOnUse"><stop stop-color="#343434"/><stop offset="1" stop-color="#101010"/></linearGradient>
</defs>
<path fill="url(#gold)" d="M115 535V183c0-74 83-113 144-71l251 173-86 105-190-129v274z"/>
<path fill="url(#black)" d="m510 289 274-177c65-42 146 4 146 81v425l-108-86V229L573 399z"/>
<path fill="url(#gold)" d="M535 302c-128 0-231 84-231 198 0 118 104 202 231 202 92 0 172-42 220-112l-92-73c-30 39-72 60-125 60-67 0-122-31-122-82 0-49 55-80 122-80 52 0 95 20 125 59l92-73c-48-61-128-99-220-99Z"/>
</svg>